<svg xmlns="http://www.w3.org/2000/svg" width="49" height="35" viewBox="0 0 49 35"><g><g><path fill="#e66d6d" d="M38.129 35.002c-5.842 0-10.412-4.6-10.869-10.94-.778-10.796 4.605-19.607 9.447-23.87a.762.762 0 0 1 1.018.012c.43.393.725.696 1.368 1.361.494.506 1.197 1.23 2.334 2.38.262.264.3.68.09.987-2.783 4.086-2.854 7.018-2.756 8.096C44.464 13.36 49 18.158 49 24.006c0 6.064-4.878 10.996-10.872 10.996zm-.924-33.169c-2.158 2.09-9.29 9.976-8.415 22.12.397 5.504 4.323 9.5 9.339 9.5 5.149 0 9.338-4.238 9.338-9.447 0-5.21-4.189-9.446-9.338-9.446a.791.791 0 0 1-.688-.428c-.277-.537-.917-4.282 2.46-9.54-.89-.9-1.473-1.502-1.9-1.941-.35-.363-.587-.61-.796-.818zM.056 24.062C-.722 13.266 4.661 4.455 9.507.192a.757.757 0 0 1 1.017.012c.43.397.726.699 1.373 1.365.494.506 1.197 1.23 2.33 2.376.258.264.299.68.086.987-2.78 4.086-2.854 7.022-2.756 8.096 5.703.333 10.243 5.13 10.243 10.978 0 6.064-4.877 10.996-10.872 10.996-5.841 0-10.412-4.6-10.872-10.94zm9.945-22.229c-2.154 2.09-9.29 9.976-8.415 22.12v-.004c.397 5.508 4.327 9.503 9.342 9.503 5.15 0 9.338-4.237 9.338-9.446 0-5.21-4.188-9.446-9.338-9.446a.786.786 0 0 1-.688-.428c-.28-.537-.916-4.282 2.457-9.54-.883-.897-1.466-1.499-1.893-1.937-.351-.363-.594-.61-.803-.822z"/></g></g></svg>